<svg width="24" height="24" viewBox="0 0 24 24" fill="none" xmlns="http://www.w3.org/2000/svg">
<path d="M12 6.50012C15.79 6.50012 19.17 8.63012 20.82 12.0001C19.17 15.3701 15.79 17.5001 12 17.5001C8.21 17.5001 4.83 15.3701 3.18 12.0001C4.83 8.63012 8.21 6.50012 12 6.50012ZM12 4.50012C7 4.50012 2.73 7.61012 1 12.0001C2.73 16.3901 7 19.5001 12 19.5001C17 19.5001 21.27 16.3901 23 12.0001C21.27 7.61012 17 4.50012 12 4.50012ZM12 9.50012C13.38 9.50012 14.5 10.6201 14.5 12.0001C14.5 13.3801 13.38 14.5001 12 14.5001C10.62 14.5001 9.5 13.3801 9.5 12.0001C9.5 10.6201 10.62 9.50012 12 9.50012ZM12 7.50012C9.52 7.50012 7.5 9.52012 7.5 12.0001C7.5 14.4801 9.52 16.5001 12 16.5001C14.48 16.5001 16.5 14.4801 16.5 12.0001C16.5 9.52012 14.48 7.50012 12 7.50012Z" fill="#424242"/>
</svg>
