<svg width="24" height="24" viewBox="0 0 24 24" fill="none" xmlns="http://www.w3.org/2000/svg">
<path d="M7 16.0001H14V18.0001H7V16.0001ZM7 12.0001H17V14.0001H7V12.0001ZM7 8.00012H17V10.0001H7V8.00012ZM19 4.00012H14.82C14.4 2.84012 13.3 2.00012 12 2.00012C10.7 2.00012 9.6 2.84012 9.18 4.00012H5C4.86 4.00012 4.73 4.01012 4.6 4.04012C4.21 4.12012 3.86 4.32012 3.59 4.59012C3.41 4.77012 3.26 4.99012 3.16 5.23012C3.06 5.46012 3 5.72012 3 6.00012V20.0001C3 20.2701 3.06 20.5401 3.16 20.7801C3.26 21.0201 3.41 21.2301 3.59 21.4201C3.86 21.6901 4.21 21.8901 4.6 21.9701C4.73 21.9901 4.86 22.0001 5 22.0001H19C20.1 22.0001 21 21.1001 21 20.0001V6.00012C21 4.90012 20.1 4.00012 19 4.00012ZM12 3.75012C12.41 3.75012 12.75 4.09012 12.75 4.50012C12.75 4.91012 12.41 5.25012 12 5.25012C11.59 5.25012 11.25 4.91012 11.25 4.50012C11.25 4.09012 11.59 3.75012 12 3.75012ZM19 20.0001H5V6.00012H19V20.0001Z" fill="#424242"/>
</svg>
