<svg width="24" height="24" viewBox="0 0 24 24" fill="none" xmlns="http://www.w3.org/2000/svg">
<path d="M18.8955 5H12.8955C12.3455 5 11.8955 4.55 11.8955 4C11.8955 3.45 12.3455 3 12.8955 3H18.8955C19.9955 3 20.8955 3.9 20.8955 5V19C20.8955 20.1 19.9955 21 18.8955 21H12.8955C12.3455 21 11.8955 20.55 11.8955 20C11.8955 19.45 12.3455 19 12.8955 19H18.8955V5Z" fill="#DF4242"/>
<path d="M3.24551 11.65L6.03551 8.86C6.35551 8.54 6.89551 8.76 6.89551 9.21V11H13.8955C14.4455 11 14.8955 11.45 14.8955 12C14.8955 12.55 14.4455 13 13.8955 13H6.89551V14.79C6.89551 15.24 6.35551 15.46 6.04551 15.14L3.25551 12.35C3.05551 12.16 3.05551 11.84 3.24551 11.65Z" fill="#DF4242"/>
</svg>
