<svg width="24" height="24" viewBox="0 0 24 24" fill="none" xmlns="http://www.w3.org/2000/svg">
<path d="M12 21.7501C13.1 21.7501 14 20.8501 14 19.7501H10C10 20.8501 10.9 21.7501 12 21.7501ZM18 15.7501V10.7501C18 7.68012 16.37 5.11012 13.5 4.43012V3.75012C13.5 2.92012 12.83 2.25012 12 2.25012C11.17 2.25012 10.5 2.92012 10.5 3.75012V4.43012C7.64 5.11012 6 7.67012 6 10.7501V15.7501L4 17.7501V18.7501H20V17.7501L18 15.7501ZM16 16.7501H8V10.7501C8 8.27012 9.51 6.25012 12 6.25012C14.49 6.25012 16 8.27012 16 10.7501V16.7501Z" fill="#424242"/>
</svg>
