<svg width="24" height="24" viewBox="0 0 24 24" fill="none" xmlns="http://www.w3.org/2000/svg">
<path d="M10.01 20.7601C10.01 21.8601 10.9 22.7501 12 22.7501C13.1 22.7501 13.99 21.8601 13.99 20.7601H10.01ZM12 5.75012C14.76 5.75012 17 7.99012 17 10.7501V17.7501H7V10.7501C7 7.99012 9.24 5.75012 12 5.75012ZM12 1.25012C11.17 1.25012 10.5 1.92012 10.5 2.75012V3.92012C7.36 4.60012 5 7.40012 5 10.7501V16.7501L3 18.7501V19.7501H21V18.7501L19 16.7501V10.7501C19 7.40012 16.64 4.60012 13.5 3.92012V2.75012C13.5 1.92012 12.83 1.25012 12 1.25012ZM11 7.75012H13V11.7501H11V7.75012ZM11 13.7501H13V15.7501H11V13.7501Z" fill="#424242"/>
</svg>
