<svg width="24" height="24" viewBox="0 0 24 24" fill="none" xmlns="http://www.w3.org/2000/svg">
<path d="M12 2.00012C6.48 2.00012 2 6.48012 2 12.0001C2 17.5201 6.48 22.0001 12 22.0001C17.52 22.0001 22 17.5201 22 12.0001C22 6.48012 17.52 2.00012 12 2.00012ZM7.07 18.2801C7.5 17.3801 10.12 16.5001 12 16.5001C13.88 16.5001 16.51 17.3801 16.93 18.2801C15.57 19.3601 13.86 20.0001 12 20.0001C10.14 20.0001 8.43 19.3601 7.07 18.2801ZM18.36 16.8301C16.93 15.0901 13.46 14.5001 12 14.5001C10.54 14.5001 7.07 15.0901 5.64 16.8301C4.62 15.4901 4 13.8201 4 12.0001C4 7.59012 7.59 4.00012 12 4.00012C16.41 4.00012 20 7.59012 20 12.0001C20 13.8201 19.38 15.4901 18.36 16.8301ZM12 6.00012C10.06 6.00012 8.5 7.56012 8.5 9.50012C8.5 11.4401 10.06 13.0001 12 13.0001C13.94 13.0001 15.5 11.4401 15.5 9.50012C15.5 7.56012 13.94 6.00012 12 6.00012ZM12 11.0001C11.17 11.0001 10.5 10.3301 10.5 9.50012C10.5 8.67012 11.17 8.00012 12 8.00012C12.83 8.00012 13.5 8.67012 13.5 9.50012C13.5 10.3301 12.83 11.0001 12 11.0001Z" fill="#424242"/>
</svg>
