<svg width="24" height="24" viewBox="0 0 24 24" fill="none" xmlns="http://www.w3.org/2000/svg">
<path d="M21.6888 18.6685L16.3888 13.3685H15.3988L12.8588 15.9085V16.8985L18.1588 22.1985C18.5488 22.5885 19.1788 22.5885 19.5688 22.1985L21.6888 20.0785C22.0788 19.6985 22.0788 19.0585 21.6888 18.6685ZM18.8588 20.0885L14.6188 15.8485L15.3288 15.1385L19.5688 19.3785L18.8588 20.0885Z" fill="#5E5E5E"/>
<path d="M17.3588 10.6885L18.7688 9.27853L20.8888 11.3985C22.0588 10.2285 22.0588 8.32854 20.8888 7.15854L17.3488 3.61854L15.9388 5.02854V2.20854L15.2388 1.49854L11.6988 5.03854L12.4088 5.74854H15.2388L13.8288 7.15854L14.8888 8.21853L11.9988 11.1085L7.86875 6.97854V5.55854L4.84875 2.53854L2.01875 5.36854L5.04875 8.39854H6.45875L10.5888 12.5285L9.73875 13.3785H7.61875L2.31875 18.6785C1.92875 19.0685 1.92875 19.6985 2.31875 20.0885L4.43875 22.2085C4.82875 22.5985 5.45875 22.5985 5.84875 22.2085L11.1488 16.9085V14.7885L16.2988 9.63854L17.3588 10.6885ZM9.37875 15.8385L5.13875 20.0785L4.42875 19.3685L8.66875 15.1285L9.37875 15.8385Z" fill="#5E5E5E"/>
</svg>
